<svg width="24" height="24" viewBox="0 0 24 24" fill="none" xmlns="http://www.w3.org/2000/svg">
<g clip-path="url(#clip0_653_3009)">
<path d="M0 0H24V8.00156H0V0Z" fill="#FF9933"/>
<path d="M0 8H24V15.9969H0V8Z" fill="white"/>
<path d="M0 16H24V24.0016H0V16Z" fill="#128807"/>
<path d="M11.9969 15.2047C13.7642 15.2047 15.1969 13.772 15.1969 12.0047C15.1969 10.2374 13.7642 8.80469 11.9969 8.80469C10.2296 8.80469 8.79688 10.2374 8.79688 12.0047C8.79688 13.772 10.2296 15.2047 11.9969 15.2047Z" fill="#000088"/>
<path d="M12.0031 14.8031C13.5495 14.8031 14.8031 13.5495 14.8031 12.0031C14.8031 10.4567 13.5495 9.20312 12.0031 9.20312C10.4567 9.20312 9.20312 10.4567 9.20312 12.0031C9.20312 13.5495 10.4567 14.8031 12.0031 14.8031Z" fill="white"/>
<path d="M11.9975 12.5575C12.3068 12.5575 12.5575 12.3068 12.5575 11.9975C12.5575 11.6882 12.3068 11.4375 11.9975 11.4375C11.6882 11.4375 11.4375 11.6882 11.4375 11.9975C11.4375 12.3068 11.6882 12.5575 11.9975 12.5575Z" fill="#000088"/>
<path d="M14.7614 12.5231C14.8403 12.5335 14.9126 12.478 14.923 12.3991C14.9334 12.3203 14.8779 12.2479 14.799 12.2375C14.7202 12.2272 14.6478 12.2827 14.6375 12.3615C14.6271 12.4404 14.6826 12.5127 14.7614 12.5231Z" fill="#000088"/>
<path d="M12.0022 14.8159L12.0982 13.1359L12.0022 12.3359L11.9062 13.1359L12.0022 14.8159Z" fill="#000088"/>
<path d="M14.5385 13.2196C14.6119 13.2501 14.6962 13.2152 14.7266 13.1417C14.757 13.0682 14.7221 12.984 14.6487 12.9535C14.5752 12.9231 14.491 12.958 14.4605 13.0315C14.4301 13.105 14.465 13.1892 14.5385 13.2196Z" fill="#000088"/>
<path d="M11.279 14.7172L11.8065 13.1193L11.9209 12.3217L11.6211 13.0696L11.279 14.7172Z" fill="#000088"/>
<path d="M14.1421 13.8318C14.2052 13.8802 14.2956 13.8683 14.344 13.8052C14.3924 13.7421 14.3805 13.6517 14.3174 13.6033C14.2543 13.5549 14.1639 13.5668 14.1155 13.6299C14.0671 13.693 14.079 13.7834 14.1421 13.8318Z" fill="#000088"/>
<path d="M10.6088 14.4379L11.532 13.031L11.8488 12.2902L11.3657 12.935L10.6088 14.4379Z" fill="#000088"/>
<path d="M13.5936 14.3286C13.642 14.3917 13.7324 14.4036 13.7955 14.3552C13.8586 14.3068 13.8705 14.2164 13.8221 14.1533C13.7737 14.0902 13.6833 14.0783 13.6202 14.1267C13.5571 14.1751 13.5452 14.2655 13.5936 14.3286Z" fill="#000088"/>
<path d="M10.0253 13.9934L11.2811 12.8733L11.7789 12.2398L11.1453 12.7376L10.0253 13.9934Z" fill="#000088"/>
<path d="M12.9375 14.6573C12.968 14.7308 13.0522 14.7657 13.1257 14.7352C13.1991 14.7048 13.234 14.6206 13.2036 14.5471C13.1732 14.4736 13.0889 14.4387 13.0155 14.4692C12.942 14.4996 12.9071 14.5838 12.9375 14.6573Z" fill="#000088"/>
<path d="M9.5722 13.4091L11.0751 12.6522L11.7199 12.1691L10.9791 12.4859L9.5722 13.4091Z" fill="#000088"/>
<path d="M12.2177 14.8053C12.2281 14.8842 12.3004 14.9397 12.3793 14.9293C12.4581 14.9189 12.5136 14.8466 12.5032 14.7678C12.4929 14.6889 12.4205 14.6334 12.3417 14.6438C12.2628 14.6542 12.2073 14.7265 12.2177 14.8053Z" fill="#000088"/>
<path d="M9.29348 12.7346L10.9411 12.3925L11.689 12.0927L10.8914 12.207L9.29348 12.7346Z" fill="#000088"/>
<path d="M11.4848 14.7614C11.4744 14.8403 11.5299 14.9126 11.6088 14.923C11.6876 14.9334 11.7599 14.8779 11.7703 14.799C11.7807 14.7202 11.7252 14.6478 11.6464 14.6375C11.5675 14.6271 11.4952 14.6826 11.4848 14.7614Z" fill="#000088"/>
<path d="M9.19194 12.0022L10.8719 12.0982L11.6719 12.0022L10.8719 11.9062L9.19194 12.0022Z" fill="#000088"/>
<path d="M10.7883 14.5463C10.7578 14.6197 10.7927 14.704 10.8662 14.7344C10.9397 14.7648 11.0239 14.73 11.0543 14.6565C11.0848 14.583 11.0499 14.4988 10.9764 14.4683C10.9029 14.4379 10.8187 14.4728 10.7883 14.5463Z" fill="#000088"/>
<path d="M9.29066 11.2868L10.8886 11.8143L11.6862 11.9287L10.9383 11.6289L9.29066 11.2868Z" fill="#000088"/>
<path d="M10.176 14.1342C10.1276 14.1973 10.1395 14.2877 10.2026 14.3361C10.2657 14.3846 10.3561 14.3726 10.4045 14.3096C10.4529 14.2465 10.441 14.1561 10.3779 14.1077C10.3149 14.0592 10.2245 14.0711 10.176 14.1342Z" fill="#000088"/>
<path d="M9.56988 10.6088L10.9768 11.5319L11.7176 11.8488L11.0728 11.3656L9.56988 10.6088Z" fill="#000088"/>
<path d="M9.687 13.5935C9.6239 13.6419 9.612 13.7323 9.66042 13.7954C9.70883 13.8585 9.79923 13.8704 9.86232 13.822C9.92541 13.7736 9.93732 13.6832 9.8889 13.6201C9.84049 13.557 9.75009 13.5451 9.687 13.5935Z" fill="#000088"/>
<path d="M10.0144 10.0174L11.1345 11.2732L11.7681 11.771L11.2703 11.1374L10.0144 10.0174Z" fill="#000088"/>
<path d="M9.35831 12.9375C9.28484 12.9679 9.24994 13.0521 9.28038 13.1256C9.31081 13.1991 9.39505 13.234 9.46852 13.2035C9.542 13.1731 9.57689 13.0889 9.54646 13.0154C9.51602 12.9419 9.43179 12.907 9.35831 12.9375Z" fill="#000088"/>
<path d="M10.6066 9.57212L11.3634 11.075L11.8465 11.7199L11.5297 10.979L10.6066 9.57212Z" fill="#000088"/>
<path d="M9.21027 12.2176C9.13142 12.228 9.07591 12.3003 9.08629 12.3792C9.09667 12.458 9.16901 12.5135 9.24786 12.5032C9.32671 12.4928 9.38221 12.4204 9.37183 12.3416C9.36145 12.2627 9.28911 12.2072 9.21027 12.2176Z" fill="#000088"/>
<path d="M11.281 9.2934L11.6231 10.941L11.9229 11.6889L11.8086 10.8913L11.281 9.2934Z" fill="#000088"/>
<path d="M9.23863 11.4925C9.15979 11.4821 9.08745 11.5377 9.07707 11.6165C9.06669 11.6953 9.12219 11.7677 9.20104 11.7781C9.27989 11.7884 9.35223 11.7329 9.36261 11.6541C9.37299 11.5752 9.31748 11.5029 9.23863 11.4925Z" fill="#000088"/>
<path d="M11.9978 9.19967L11.9018 10.8797L11.9978 11.6797L12.0938 10.8797L11.9978 9.19967Z" fill="#000088"/>
<path d="M9.46161 10.796C9.38814 10.7656 9.3039 10.8004 9.27347 10.8739C9.24303 10.9474 9.27792 11.0316 9.3514 11.0621C9.42487 11.0925 9.50911 11.0576 9.53954 10.9841C9.56998 10.9107 9.53509 10.8264 9.46161 10.796Z" fill="#000088"/>
<path d="M12.7211 9.29839L12.1935 10.8963L12.0792 11.6939L12.379 10.946L12.7211 9.29839Z" fill="#000088"/>
<path d="M9.85796 10.1838C9.79486 10.1354 9.70447 10.1473 9.65605 10.2104C9.60764 10.2735 9.61954 10.3639 9.68263 10.4123C9.74573 10.4607 9.83612 10.4488 9.88454 10.3857C9.93295 10.3226 9.92105 10.2323 9.85796 10.1838Z" fill="#000088"/>
<path d="M13.3912 9.57768L12.4681 10.9846L12.1512 11.7254L12.6344 11.0806L13.3912 9.57768Z" fill="#000088"/>
<path d="M10.4064 9.68698C10.358 9.62389 10.2676 9.61199 10.2045 9.6604C10.1415 9.70881 10.1295 9.79921 10.178 9.8623C10.2264 9.9254 10.3168 9.9373 10.3799 9.88889C10.443 9.84047 10.4549 9.75008 10.4064 9.68698Z" fill="#000088"/>
<path d="M13.9748 10.0222L12.719 11.1423L12.2212 11.7759L12.8547 11.278L13.9748 10.0222Z" fill="#000088"/>
<path d="M11.0625 9.35831C11.0321 9.28484 10.9479 9.24994 10.8744 9.28038C10.8009 9.31081 10.766 9.39505 10.7965 9.46852C10.8269 9.542 10.9111 9.57689 10.9846 9.54646C11.0581 9.51602 11.093 9.43179 11.0625 9.35831Z" fill="#000088"/>
<path d="M14.4279 10.6066L12.9249 11.3634L12.2801 11.8465L13.0209 11.5297L14.4279 10.6066Z" fill="#000088"/>
<path d="M11.7824 9.21028C11.772 9.13143 11.6996 9.07593 11.6208 9.08631C11.542 9.09669 11.4864 9.16902 11.4968 9.24787C11.5072 9.32672 11.5795 9.38223 11.6584 9.37184C11.7372 9.36146 11.7927 9.28913 11.7824 9.21028Z" fill="#000088"/>
<path d="M14.7066 11.281L13.059 11.6231L12.3111 11.9229L13.1087 11.8086L14.7066 11.281Z" fill="#000088"/>
<path d="M12.5153 9.2542C12.5256 9.17535 12.4701 9.10302 12.3913 9.09263C12.3124 9.08225 12.2401 9.13776 12.2297 9.21661C12.2194 9.29546 12.2749 9.36779 12.3537 9.37817C12.4326 9.38855 12.5049 9.33305 12.5153 9.2542Z" fill="#000088"/>
<path d="M14.8081 12.0134L13.1281 11.9174L12.3281 12.0134L13.1281 12.1094L14.8081 12.0134Z" fill="#000088"/>
<path d="M13.2118 9.46936C13.2422 9.39589 13.2074 9.31165 13.1339 9.28122C13.0604 9.25078 12.9762 9.28567 12.9457 9.35915C12.9153 9.43262 12.9502 9.51686 13.0237 9.54729C13.0971 9.57773 13.1814 9.54284 13.2118 9.46936Z" fill="#000088"/>
<path d="M14.7094 12.7288L13.1115 12.2013L12.3139 12.087L13.0618 12.3867L14.7094 12.7288Z" fill="#000088"/>
<path d="M13.8241 9.86577C13.8725 9.80267 13.8606 9.71228 13.7975 9.66386C13.7344 9.61545 13.644 9.62735 13.5956 9.69044C13.5472 9.75354 13.5591 9.84393 13.6222 9.89235C13.6853 9.94076 13.7757 9.92886 13.8241 9.86577Z" fill="#000088"/>
<path d="M14.4302 13.399L13.0233 12.4759L12.2825 12.159L12.9273 12.6422L14.4302 13.399Z" fill="#000088"/>
<path d="M14.3131 10.4143C14.3762 10.3658 14.3881 10.2755 14.3396 10.2124C14.2912 10.1493 14.2008 10.1374 14.1377 10.1858C14.0746 10.2342 14.0627 10.3246 14.1112 10.3877C14.1596 10.4508 14.25 10.4627 14.3131 10.4143Z" fill="#000088"/>
<path d="M13.9778 13.9826L12.8578 12.7268L12.2242 12.229L12.722 12.8626L13.9778 13.9826Z" fill="#000088"/>
<path d="M14.6417 11.0703C14.7152 11.0399 14.7501 10.9557 14.7197 10.8822C14.6892 10.8087 14.605 10.7738 14.5315 10.8043C14.4581 10.8347 14.4232 10.9189 14.4536 10.9924C14.484 11.0659 14.5683 11.1008 14.6417 11.0703Z" fill="#000088"/>
<path d="M13.3935 14.4357L12.6366 12.9328L12.1535 12.2879L12.4704 13.0288L13.3935 14.4357Z" fill="#000088"/>
<path d="M14.7898 11.7902C14.8686 11.7798 14.9241 11.7075 14.9138 11.6286C14.9034 11.5498 14.8311 11.4943 14.7522 11.5046C14.6734 11.515 14.6179 11.5874 14.6282 11.6662C14.6386 11.7451 14.7109 11.8006 14.7898 11.7902Z" fill="#000088"/>
<path d="M12.719 14.7144L12.3769 13.0668L12.0772 12.3189L12.1915 13.1165L12.719 14.7144Z" fill="#000088"/>
</g>
<defs>
<clipPath id="clip0_653_3009">
<rect width="24" height="24" rx="12" fill="white"/>
</clipPath>
</defs>
</svg>
