<svg width="32" height="32" viewBox="0 0 32 32" fill="none" xmlns="http://www.w3.org/2000/svg">
<g clip-path="url(#clip0_13901_79)">
<path fill-rule="evenodd" clip-rule="evenodd" d="M12.702 8.048C11.8505 8.08686 11.2688 8.22171 10.7591 8.42057C10.2334 8.624 9.78767 8.89829 9.34196 9.34286C8.89853 9.78743 8.62424 10.2343 8.42082 10.76C8.22196 11.2686 8.0871 11.8503 8.04824 12.7017C8.00939 13.5543 8.00024 13.8274 8.00024 16C8.00024 18.1726 8.00939 18.4457 8.04824 19.2983C8.0871 20.1497 8.22196 20.7314 8.42082 21.2411C8.62424 21.7669 8.89853 22.2126 9.3431 22.6583C9.78767 23.1017 10.2345 23.376 10.7602 23.5806C11.2688 23.7783 11.8505 23.912 12.702 23.952C13.5557 23.9909 13.8277 24 16.0002 24C18.1728 24 18.446 23.9909 19.2985 23.952C20.15 23.9131 20.7317 23.7783 21.2414 23.5806C21.7671 23.3749 22.2128 23.1017 22.6585 22.6571C23.102 22.2126 23.3762 21.7657 23.5808 21.24C23.7785 20.7314 23.9122 20.1497 23.9522 19.2983C23.9911 18.4446 24.0002 18.1726 24.0002 16C24.0002 13.8274 23.9911 13.5543 23.9522 12.7017C23.9134 11.8503 23.7785 11.2686 23.5808 10.7589C23.3797 10.2249 23.0646 9.74131 22.6574 9.34171C22.2128 8.89829 21.766 8.624 21.2402 8.42057C20.7317 8.22171 20.15 8.08686 19.2985 8.048C18.446 8.00914 18.1728 8 16.0002 8C13.8277 8 13.5545 8.00914 12.702 8.048ZM11.8917 16C11.8917 17.0897 12.3245 18.1347 13.095 18.9052C13.8656 19.6757 14.9106 20.1086 16.0002 20.1086C17.0899 20.1086 18.1349 19.6757 18.9054 18.9052C19.676 18.1347 20.1088 17.0897 20.1088 16C20.1088 14.9103 19.676 13.8653 18.9054 13.0948C18.1349 12.3243 17.0899 11.8914 16.0002 11.8914C14.9106 11.8914 13.8656 12.3243 13.095 13.0948C12.3245 13.8653 11.8917 14.9103 11.8917 16ZM16.0002 18.6663C15.2931 18.6663 14.6149 18.3854 14.1149 17.8853C13.6149 17.3853 13.334 16.7071 13.334 16C13.334 15.2929 13.6149 14.6147 14.1149 14.1147C14.6149 13.6146 15.2931 13.3337 16.0002 13.3337C16.7074 13.3337 17.3856 13.6146 17.8856 14.1147C18.3856 14.6147 18.6665 15.2929 18.6665 16C18.6665 16.7071 18.3856 17.3853 17.8856 17.8853C17.3856 18.3854 16.7074 18.6663 16.0002 18.6663ZM21.6002 11.44C21.6002 11.5661 21.5754 11.6909 21.5272 11.8074C21.4789 11.9238 21.4082 12.0297 21.3191 12.1188C21.2299 12.208 21.1241 12.2787 21.0076 12.3269C20.8911 12.3752 20.7663 12.4 20.6402 12.4C20.5142 12.4 20.3893 12.3752 20.2729 12.3269C20.1564 12.2787 20.0506 12.208 19.9614 12.1188C19.8723 12.0297 19.8016 11.9238 19.7533 11.8074C19.7051 11.6909 19.6802 11.5661 19.6802 11.44C19.6802 11.1854 19.7814 10.9412 19.9614 10.7612C20.1415 10.5811 20.3856 10.48 20.6402 10.48C20.8949 10.48 21.139 10.5811 21.3191 10.7612C21.4991 10.9412 21.6002 11.1854 21.6002 11.44Z" fill="white"/>
</g>
<defs>
<clipPath id="clip0_13901_79">
<rect width="32" height="32" fill="white"/>
</clipPath>
</defs>
</svg>
