<svg width="33" height="33" viewBox="0 0 33 33" fill="none" xmlns="http://www.w3.org/2000/svg">
<path d="M23.3 13.1773C23.3071 13.3359 23.3107 13.4952 23.3107 13.6552C23.3107 18.5354 19.5958 24.1624 12.8039 24.1624C10.7182 24.1624 8.77683 23.551 7.14258 22.5031C7.43185 22.5374 7.72542 22.5549 8.02364 22.5549C9.75395 22.5549 11.346 21.9646 12.6103 20.9739C10.9939 20.9442 9.63037 19.8764 9.1604 18.4093C9.38612 18.4525 9.6172 18.4757 9.85539 18.4757C10.1918 18.4757 10.5182 18.4304 10.8282 18.3461C9.13898 18.0068 7.86576 16.5143 7.86576 14.7251C7.86576 14.7094 7.86576 14.694 7.86614 14.6787C8.36398 14.9551 8.93326 15.1212 9.53893 15.1404C8.5479 14.4784 7.89612 13.348 7.89612 12.0666C7.89612 11.3899 8.07788 10.7556 8.39608 10.2102C10.2175 12.4444 12.9381 13.9144 16.0073 14.0687C15.9445 13.7983 15.9116 13.5166 15.9116 13.2269C15.9116 11.1877 17.5651 9.53418 19.6043 9.53418C20.6672 9.53418 21.6264 9.98274 22.2999 10.7002C23.1414 10.5349 23.9313 10.2274 24.6449 9.80415C24.3692 10.6666 23.7842 11.3902 23.0214 11.8473C23.7685 11.758 24.4806 11.5595 25.1427 11.2659C24.6478 12.0063 24.0214 12.6566 23.3 13.1773Z" fill="white"/>
</svg>
