<svg width="41" height="17" viewBox="0 0 41 17" fill="none" xmlns="http://www.w3.org/2000/svg">
<path d="M23.7339 4.74538C23.7339 7.13444 22.0481 8.83886 19.6934 8.83886H17.4748C17.4382 8.83941 17.4025 8.85051 17.372 8.87084C17.3415 8.89116 17.3175 8.91984 17.3029 8.95345C17.2935 8.97566 17.2887 8.99952 17.2886 9.02363V12.1632C17.2886 12.1876 17.2838 12.2117 17.2744 12.2342C17.265 12.2568 17.2513 12.2772 17.234 12.2944C17.2167 12.3115 17.1961 12.3251 17.1735 12.3343C17.151 12.3435 17.1268 12.3482 17.1024 12.348H15.5498C15.5004 12.348 15.453 12.3284 15.4181 12.2934C15.3832 12.2585 15.3636 12.2112 15.3636 12.1618V0.839535C15.363 0.802647 15.3737 0.766452 15.3941 0.735755C15.4146 0.705058 15.4439 0.68131 15.4782 0.667661C15.5009 0.658169 15.5252 0.6533 15.5498 0.653338H19.7034C22.0481 0.653338 23.7339 2.35633 23.7339 4.74538ZM21.7974 4.74538C21.7974 3.37325 20.855 2.37065 19.5774 2.37065H17.4748C17.4503 2.37065 17.4261 2.37547 17.4035 2.38482C17.3809 2.39418 17.3604 2.4079 17.3431 2.42519C17.3258 2.44248 17.3121 2.463 17.3028 2.48559C17.2934 2.50818 17.2886 2.5324 17.2886 2.55685V6.92533C17.2883 6.94982 17.293 6.97412 17.3024 6.99677C17.3117 7.01941 17.3255 7.03993 17.343 7.0571C17.3603 7.07444 17.3808 7.08819 17.4034 7.09753C17.4261 7.10687 17.4503 7.11163 17.4748 7.11152H19.5774C20.855 7.11868 21.7974 6.11608 21.7974 4.74538ZM24.1951 10.1752C24.1787 9.80824 24.2551 9.44309 24.417 9.11342C24.579 8.78375 24.8214 8.50018 25.1218 8.28886C25.7277 7.83626 26.6744 7.60137 28.0652 7.55267L29.5447 7.50111V7.06712C29.5447 6.19772 28.9575 5.83106 28.015 5.83106C27.0726 5.83106 26.4753 6.16192 26.3392 6.70475C26.3276 6.74289 26.3038 6.77616 26.2715 6.79945C26.2391 6.82274 26.2 6.83476 26.1602 6.83366H24.6964C24.6561 6.83418 24.6167 6.82161 24.5842 6.79785C24.5517 6.7741 24.5277 6.74042 24.5159 6.70189C24.5082 6.67638 24.5062 6.64947 24.5102 6.62311C24.7279 5.33692 25.805 4.3601 28.0823 4.3601C30.5058 4.3601 31.3809 5.48158 31.3809 7.61999V12.1632C31.3807 12.1878 31.3757 12.2121 31.3661 12.2347C31.3564 12.2573 31.3424 12.2778 31.3249 12.295C31.3073 12.3121 31.2865 12.3257 31.2636 12.3348C31.2408 12.3439 31.2164 12.3483 31.1918 12.348H29.7166C29.6672 12.348 29.6198 12.3284 29.5849 12.2934C29.55 12.2585 29.5304 12.2112 29.5304 12.1618V11.8238C29.5309 11.7957 29.5227 11.7682 29.5071 11.7449C29.4915 11.7216 29.4691 11.7036 29.443 11.6934C29.4172 11.6832 29.3889 11.6808 29.3617 11.6864C29.3345 11.692 29.3095 11.7054 29.2898 11.7249C28.8458 12.2033 28.1325 12.5485 26.9881 12.5485C25.3051 12.5485 24.1951 11.6791 24.1951 10.1752ZM29.5447 9.19121V8.83886L27.6269 8.93912C26.6171 8.99068 26.0299 9.40605 26.0299 10.1079C26.0299 10.7438 26.5684 11.0961 27.5109 11.0961C28.7899 11.0961 29.5447 10.4087 29.5447 9.19121ZM32.8619 15.7797V14.4635C32.8623 14.4359 32.8687 14.4087 32.8809 14.3839C32.893 14.3592 32.9105 14.3374 32.9321 14.3202C32.9535 14.3029 32.9784 14.2905 33.0051 14.2838C33.0319 14.2771 33.0597 14.2763 33.0868 14.2816C33.3131 14.3231 33.5422 14.3446 33.7728 14.3446C34.1678 14.3662 34.5586 14.2542 34.8821 14.0266C35.2056 13.7989 35.443 13.469 35.556 13.0899L35.652 12.7877C35.6663 12.7469 35.6663 12.7024 35.652 12.6616L32.5797 4.82559C32.5619 4.78259 32.5609 4.73447 32.5768 4.69073C32.5927 4.64699 32.6244 4.61079 32.6657 4.58926C32.693 4.57484 32.7235 4.56746 32.7545 4.56778H34.2441C34.2823 4.56788 34.3196 4.57957 34.351 4.60131C34.3825 4.62304 34.4066 4.6538 34.4202 4.68952L36.5056 10.2167C36.5185 10.2538 36.5428 10.286 36.5749 10.3086C36.607 10.3312 36.6454 10.3431 36.6847 10.3428C36.7239 10.3427 36.7621 10.3306 36.7941 10.308C36.8262 10.2855 36.8505 10.2536 36.8637 10.2167L38.6756 4.70528C38.6878 4.66728 38.712 4.63424 38.7445 4.61103C38.777 4.58782 38.8161 4.57567 38.856 4.57637H40.3972C40.4434 4.57665 40.488 4.5936 40.5228 4.62413C40.5575 4.65465 40.58 4.6967 40.5862 4.74252C40.5897 4.77308 40.5858 4.80403 40.5748 4.83275L37.2877 13.5353C36.5314 15.5592 35.2352 16.0748 33.8072 16.0748C33.5362 16.0823 33.2656 16.0504 33.0037 15.9802C32.9598 15.9695 32.9212 15.9433 32.8949 15.9065C32.8686 15.8697 32.8579 15.8248 32.8619 15.7797ZM5.38338 0.000214784C3.42902 -0.0143921 1.54258 0.716518 0.108252 2.04409C0.0472179 2.0996 0.00912321 2.1759 0.00143903 2.25804C-0.00624516 2.34019 0.0170352 2.42223 0.0667152 2.4881L0.951872 3.68979C0.980552 3.73031 1.01781 3.76401 1.06099 3.78851C1.10416 3.813 1.15221 3.82769 1.20171 3.83152C1.2512 3.83534 1.30093 3.82822 1.34736 3.81066C1.3938 3.7931 1.43579 3.76552 1.47036 3.72989C1.98588 3.21799 2.59811 2.81378 3.27138 2.54083C3.94466 2.26789 4.66552 2.13165 5.39198 2.14005C8.42843 2.14005 10.014 4.4088 10.014 6.65176C10.014 9.08665 8.34823 10.8025 5.95343 10.8355C4.10291 10.8355 2.70786 9.61803 2.70786 8.00814C2.70945 7.60105 2.80196 7.19946 2.97865 6.83271C3.15533 6.46596 3.41172 6.14331 3.72909 5.88835C3.79666 5.83292 3.83955 5.75301 3.84841 5.66607C3.85727 5.57912 3.83136 5.4922 3.77635 5.42429L2.84536 4.25697C2.81725 4.22108 2.78218 4.19125 2.74224 4.16927C2.7023 4.14729 2.65833 4.13361 2.61298 4.12906C2.56762 4.12451 2.52181 4.12918 2.4783 4.1428C2.43479 4.15641 2.39449 4.17868 2.35981 4.20828C1.78962 4.66567 1.32868 5.24453 1.0106 5.90267C0.69365 6.55935 0.528673 7.27897 0.527913 8.00814C0.527913 10.7796 2.89836 12.9524 5.93481 12.9696H5.97778C9.58286 12.9237 12.1896 10.2711 12.1896 6.64603C12.1896 3.42768 9.802 0.000214784 5.38338 0.000214784Z" fill="white"/>
</svg>
